<svg width="31" height="30" viewBox="0 0 31 30" fill="none" xmlns="http://www.w3.org/2000/svg">
<circle cx="15.1855" cy="15" r="15" fill="white"/>
<path d="M12.1878 11.6192C12.1878 13.1349 11.1177 14.3636 9.79762 14.3636C8.47759 14.3636 7.40723 13.1349 7.40723 11.6192C7.40723 10.1036 8.47759 8.87484 9.79762 8.87484C11.1177 8.87484 12.1878 10.1036 12.1878 11.6192Z" fill="#21214D"/>
<path d="M22.9641 11.6192C22.9641 13.1349 21.894 14.3636 20.574 14.3636C19.2537 14.3636 18.1836 13.1349 18.1836 11.6192C18.1836 10.1036 19.2537 8.87484 20.574 8.87484C21.894 8.87484 22.9641 10.1036 22.9641 11.6192Z" fill="#21214D"/>
<path d="M10.2048 10.8047C10.2048 11.284 9.81636 11.6724 9.33739 11.6724C8.85816 11.6724 8.46973 11.284 8.46973 10.8047C8.46973 10.3255 8.85816 9.93708 9.33739 9.93708C9.81636 9.93708 10.2048 10.3255 10.2048 10.8047Z" fill="white"/>
<path d="M20.9814 10.8047C20.9814 11.284 20.593 11.6724 20.1138 11.6724C19.6345 11.6724 19.2461 11.284 19.2461 10.8047C19.2461 10.3255 19.6345 9.93708 20.1138 9.93708C20.593 9.93708 20.9814 10.3255 20.9814 10.8047Z" fill="white"/>
<path d="M15.1855 25.5103C17.9909 25.5103 19.9365 24.6412 21.3447 23.5533C22.4034 22.7354 23.1601 21.7933 23.7529 20.9937L24.2959 20.2515C24.8724 19.4735 24.8883 18.7489 24.7031 18.2027L24.792 18.1714L24.7021 18.2027V18.2007C24.6899 18.162 24.6754 18.124 24.6602 18.0865L24.6113 17.9752L24.6104 17.9742C24.4837 17.7034 24.3099 17.4879 24.1465 17.3482C24.0648 17.2784 23.9885 17.2288 23.9238 17.2007C23.8603 17.1733 23.8193 17.1712 23.7988 17.1754C22.2958 17.8675 20.5281 18.1644 18.9473 18.2886C17.3623 18.4132 15.9549 18.3648 15.1855 18.3648C14.416 18.3648 13.0093 18.4131 11.4248 18.2886C9.84378 18.1644 8.07542 17.8677 6.57227 17.1754C6.55175 17.1714 6.51118 17.1735 6.44824 17.2007C6.3835 17.2288 6.30638 17.2783 6.22461 17.3482C6.10212 17.453 5.97409 17.6005 5.86426 17.7818L5.76172 17.9742L5.76074 17.9752L5.71094 18.0865L5.66992 18.2007L5.66895 18.2027L5.60938 18.4156C5.50428 18.8939 5.56147 19.4798 5.97363 20.106L6.0752 20.2515C6.74054 21.1513 7.61582 22.4629 9.02734 23.5533C10.4356 24.6411 12.3805 25.5102 15.1855 25.5103Z" fill="#21214D" stroke="#21214D" stroke-width="0.195656"/>
<path d="M8.11106 20.2177C9.99398 21.4233 12.4714 22.1545 15.185 22.1545C17.0592 22.1545 18.8209 21.8057 20.3511 21.1926C21.2974 20.8137 22.1554 20.3338 22.897 19.7729C23.1367 19.5916 23.3639 19.402 23.5781 19.2045C23.7923 19.0073 23.9934 18.802 24.1807 18.5896C24.2192 18.546 24.2571 18.502 24.2944 18.4577C24.3022 18.4485 24.3101 18.4393 24.318 18.43L24.3293 18.416C24.3666 18.371 24.4033 18.3257 24.4394 18.2802L24.4506 18.2665L24.4565 18.2586C24.5408 18.1514 24.6216 18.0427 24.6989 17.9325C24.5486 17.6114 24.3346 17.3628 24.1407 17.2179C24.0817 17.1736 24.0247 17.1389 23.9719 17.1147C23.9719 17.1148 23.9718 17.1148 23.9718 17.1149C23.9519 17.1062 23.9329 17.099 23.9147 17.0931C23.8995 17.0882 23.8847 17.0842 23.8705 17.0813C23.8576 17.0787 23.8452 17.0767 23.8331 17.0755L23.8328 17.0761L23.8331 17.0751C23.8083 17.0751 23.7876 17.0752 23.7669 17.0815L23.7668 17.0817C21.0755 18.3262 17.5034 18.2891 15.6994 18.2703C15.5067 18.2683 15.3342 18.2665 15.1851 18.2665C15.0357 18.2665 14.8629 18.2683 14.67 18.2703C13.8531 18.2788 12.6747 18.2911 11.3798 18.1866C9.81333 18.06 8.0764 17.7627 6.60271 17.0815C6.58621 17.0769 6.56797 17.0749 6.54823 17.0755L6.53691 17.0755L6.5367 17.0751C6.49528 17.0793 6.44784 17.0916 6.39811 17.1145L6.39872 17.1157L6.39854 17.1158L6.39799 17.1147C6.17014 17.2183 5.86768 17.5144 5.6709 17.9329C5.71024 17.9888 5.7515 18.0447 5.79293 18.1006L5.79315 18.1002L5.79299 18.1008C5.83442 18.1567 5.87587 18.2106 5.91935 18.2665C5.93227 18.2825 5.94521 18.2987 5.9582 18.3149C5.98893 18.3534 6.02001 18.3922 6.05202 18.4301C6.07444 18.4566 6.0969 18.4825 6.11928 18.5084L6.11942 18.5086C6.14249 18.5354 6.16555 18.5621 6.18864 18.5895C6.37714 18.8028 6.57835 19.0081 6.79172 19.2049C6.9961 19.3915 7.20988 19.5726 7.43643 19.7445C7.44885 19.754 7.4613 19.7635 7.47377 19.7729C7.54108 19.8238 7.60934 19.8741 7.67854 19.9236C7.81889 20.0243 7.96265 20.122 8.11106 20.2177Z" fill="white"/>
</svg>
